<?xml version="1.0" encoding="utf-8"?>
<!-- Generator: Adobe Illustrator 16.0.0, SVG Export Plug-In . SVG Version: 6.00 Build 0)  -->
<!DOCTYPE svg PUBLIC "-//W3C//DTD SVG 1.1//EN" "http://www.w3.org/Graphics/SVG/1.1/DTD/svg11.dtd">
<svg version="1.1" id="Layer_1" xmlns="http://www.w3.org/2000/svg" xmlns:xlink="http://www.w3.org/1999/xlink" x="0px" y="0px"
	 width="232px" height="65px" viewBox="0 0 232 65" enable-background="new 0 0 232 65" xml:space="preserve">
<g>
	<path fill="#C03D50" d="M171.055,22.594c0.672-1.848,1.327-3.643,1.988-5.458c-0.901,0-1.781,0-2.696,0
		c-0.079,0.125-0.163,0.269-0.261,0.409c-0.445,0.643-1.204,1.008-1.866,0.903c-0.563-0.09-0.855-0.64-0.647-1.265
		c0.166-0.499,0.344-0.998,0.544-1.496c0.291-0.734,1.074-1.307,1.817-1.308c3.656-0.011,7.311-0.011,10.962-0.001
		c0.787,0.001,1.127,0.595,0.862,1.418c-0.12,0.372-0.266,0.747-0.406,1.121c-0.335,0.891-1.025,1.479-1.802,1.539
		c-0.831,0.064-1.208-0.403-1.037-1.323c-0.889,0-1.782,0-2.697,0c-0.657,1.814-1.312,3.608-1.985,5.461c0.163,0,0.323,0,0.484,0
		c3.389,0,6.779,0.007,10.172-0.003c4.378-0.009,7.388,1.655,8.99,4.981c0.977,2.025,1.182,4.385,0.46,7.043
		c-0.401,1.467-0.971,2.955-1.507,4.433c-0.276,0.762-1.067,1.314-1.794,1.323c-0.762,0.012-1.166-0.512-0.91-1.299
		c0.358-1.104,0.796-2.213,1.15-3.317c0.196-0.616,0.274-1.229,0.432-1.845c0.078-0.304-0.034-0.372-0.322-0.371
		c-3.258,0.011-6.508,0.006-9.759,0.006c-2.826,0-5.649,0.004-8.47-0.001c-0.849-0.001-1.238-0.39-1.13-1.108
		c0.119-0.789,0.953-1.547,1.784-1.617c0.169-0.015,0.335-0.007,0.502-0.007c5.578,0,11.155,0,16.731,0c0.164,0,0.33,0,0.64,0
		c-0.228-0.606-0.381-1.158-0.625-1.649c-1.027-2.057-2.813-3.304-5.351-3.716c-0.589-0.096-1.226-0.11-1.86-0.11
		c-9.395-0.007-18.793-0.005-28.191-0.005c-0.862,0-1.26-0.357-1.183-1.06c0.091-0.808,0.974-1.617,1.827-1.673
		c0.155-0.009,0.307-0.004,0.458-0.004c4.72,0,9.438,0,14.159,0C170.686,22.594,170.852,22.594,171.055,22.594z"/>
	<path fill="#C03D50" d="M154.178,39.025c1.286,0,2.57,0.013,3.863-0.007c0.538-0.007,0.9,0.168,1.131,0.55
		c0.404,0.667,0.821,1.322,1.259,1.963c0.085,0.127,0.271,0.223,0.45,0.226c2.126,0.016,4.258,0.017,6.395-0.003
		c0.204-0.002,0.494-0.118,0.699-0.261c0.904-0.637,1.798-1.299,2.686-1.962c0.464-0.348,0.915-0.513,1.402-0.511
		c2.641,0.008,5.285,0.011,7.932-0.002c0.521-0.001,0.861,0.184,1.085,0.552c0.394,0.643,0.817,1.266,1.205,1.913
		c0.123,0.203,0.295,0.29,0.585,0.287c2.381-0.01,4.763-0.01,7.14-0.003c0.926,0.003,1.274,0.611,0.888,1.493
		c-0.258,0.587-0.852,1.069-1.477,1.18c-0.229,0.042-0.456,0.054-0.68,0.054c-2.49,0.006-4.979-0.006-7.474,0.01
		c-0.655,0.005-1.104-0.19-1.378-0.675c-0.357-0.638-0.764-1.246-1.174-1.849c-0.08-0.118-0.256-0.207-0.425-0.207
		c-2.167-0.014-4.34-0.014-6.519,0c-0.17,0-0.408,0.092-0.574,0.21c-0.915,0.652-1.824,1.319-2.725,1.994
		c-0.482,0.362-0.954,0.522-1.45,0.522c-2.613-0.004-5.229-0.005-7.846,0c-0.515,0-0.875-0.174-1.103-0.541
		c-0.396-0.643-0.815-1.268-1.205-1.913c-0.124-0.205-0.295-0.289-0.583-0.288c-2.329,0.01-4.653,0.008-6.976,0.006
		c-0.824-0.002-1.228-0.313-1.226-0.921c0-0.858,0.931-1.784,1.854-1.804c1.421-0.026,2.826-0.006,4.237-0.006
		C154.175,39.03,154.177,39.028,154.178,39.025z"/>
	<path fill="#C03D50" d="M167.565,47.235c6.74,0,13.479,0,20.22-0.003c0.496,0,0.957,0.041,1.165,0.441
		c0.207,0.396,0.131,0.866-0.211,1.355c-0.354,0.508-0.835,0.832-1.412,0.904c-0.171,0.02-0.343,0.036-0.507,0.036
		c-13.468,0.002-26.932,0.002-40.396,0.002c-0.997,0-1.374-0.292-1.322-1.012c0.054-0.771,0.862-1.584,1.695-1.695
		c0.229-0.029,0.45-0.027,0.673-0.027C154.171,47.234,160.869,47.235,167.565,47.235z"/>
</g>
<g>
	<path fill="#6E6F71" d="M36.133,48.133c-0.568-1.566-0.331-3.78,0.71-6.64l6.841-18.796c1.041-2.86,2.415-5.074,4.123-6.64
		c1.707-1.565,3.634-2.349,5.776-2.349c2.143,0,3.498,0.784,4.065,2.349c0.567,1.567,0.331,3.78-0.71,6.64l-6.841,18.796
		c-1.041,2.859-2.416,5.074-4.123,6.64c-1.708,1.566-3.633,2.349-5.776,2.349C38.056,50.481,36.701,49.699,36.133,48.133z
		 M45.602,41.851l7.102-19.512c0.855-2.349,0.529-3.523-0.979-3.523c-1.507,0-2.689,1.174-3.544,3.523l-7.102,19.512
		c-0.855,2.35-0.529,3.523,0.979,3.523C43.565,45.374,44.746,44.2,45.602,41.851z"/>
	<path fill="#6E6F71" d="M62.961,14.218h5.477l-3.543,21.401h0.079l7.79-21.401h3.889L63.639,49.97h-4.484l4.262-26.099h-0.079
		L53.837,49.97h-3.889L62.961,14.218z"/>
	<path fill="#6E6F71" d="M81.46,19.325h-4.563l1.858-5.107h13.492l-1.859,5.107h-4.563L74.67,49.97h-4.364L81.46,19.325z"/>
	<path fill="#6E6F71" d="M94.351,14.218h6.469c2.249,0,3.644,0.673,4.186,2.018c0.543,1.346,0.306,3.414-0.71,6.206l-0.799,2.196
		c-1.351,3.712-3.158,6.062-5.422,7.048l-0.037,0.103c0.909,0.409,1.353,1.243,1.332,2.502c-0.022,1.261-0.418,2.946-1.186,5.057
		l-2.287,6.283c-0.373,1.021-0.646,1.847-0.822,2.477c-0.176,0.631-0.271,1.252-0.281,1.863h-4.444
		c0.051-0.577,0.144-1.122,0.277-1.633c0.132-0.511,0.441-1.43,0.924-2.758l2.379-6.538c0.595-1.634,0.805-2.775,0.63-3.422
		s-0.765-0.971-1.77-0.971h-1.508L85.704,49.97h-4.365L94.351,14.218z M94.726,29.541c0.873,0,1.633-0.288,2.28-0.869
		c0.647-0.578,1.218-1.549,1.714-2.911l1.004-2.759c0.471-1.293,0.634-2.229,0.487-2.809c-0.146-0.578-0.604-0.868-1.37-0.868
		h-1.984l-3.718,10.215H94.726z"/>
	<path fill="#6E6F71" d="M113.716,14.218h5.913L111.14,49.97h-4.365l1.79-7.098l-0.038,0.102h-4.959l-3.341,6.998H96.18
		L113.716,14.218z M109.778,38.121l4.487-17.672h-0.079l-8.336,17.672H109.778z"/>
	<path fill="#6E6F71" d="M115.183,48.184c-0.541-1.532-0.303-3.694,0.713-6.486l6.99-19.205c1.017-2.792,2.352-4.955,4.008-6.487
		c1.656-1.532,3.527-2.298,5.618-2.298s3.405,0.766,3.946,2.298c0.54,1.533,0.301,3.695-0.714,6.487l-1.376,3.779h-4.127
		l1.506-4.138c0.805-2.213,0.479-3.319-0.975-3.319c-1.457,0-2.588,1.106-3.391,3.319l-7.271,19.971
		c-0.791,2.179-0.461,3.269,0.994,3.269c1.454,0,2.578-1.09,3.372-3.269l1.989-5.465h4.127l-1.842,5.056
		c-1.016,2.792-2.352,4.953-4.007,6.486s-3.528,2.298-5.618,2.298C117.036,50.48,115.723,49.716,115.183,48.184z"/>
	<path fill="#6E6F71" d="M141.375,14.218h4.365l-5.484,15.068l11.041-15.068h4.364l-9.977,13.127l-2.957,22.626h-4.563l2.108-15.935
		l-3.4,4.545l-4.146,11.39h-4.364L141.375,14.218z"/>
</g>
</svg>
