<?xml version="1.0" encoding="utf-8"?>
<!-- Generator: Adobe Illustrator 16.0.0, SVG Export Plug-In . SVG Version: 6.00 Build 0)  -->
<!DOCTYPE svg PUBLIC "-//W3C//DTD SVG 1.1//EN" "http://www.w3.org/Graphics/SVG/1.1/DTD/svg11.dtd">
<svg version="1.1" id="Layer_1" xmlns="http://www.w3.org/2000/svg" xmlns:xlink="http://www.w3.org/1999/xlink" x="0px" y="0px"
	 width="232px" height="65px" viewBox="0 0 232 65" enable-background="new 0 0 232 65" xml:space="preserve">
<g>
	<path fill-rule="evenodd" clip-rule="evenodd" fill="#BDCEC5" d="M195.084,21.298c0.905-2.486,1.784-4.899,2.674-7.344
		c-1.21,0-2.395,0-3.627,0c-0.106,0.169-0.219,0.362-0.349,0.55c-0.6,0.865-1.622,1.357-2.513,1.215
		c-0.758-0.121-1.15-0.86-0.871-1.703c0.224-0.67,0.463-1.342,0.732-2.011c0.393-0.987,1.447-1.758,2.445-1.76
		c4.921-0.013,9.836-0.013,14.748-0.001c1.059,0.002,1.518,0.8,1.161,1.908c-0.163,0.501-0.357,1.005-0.547,1.508
		c-0.45,1.199-1.378,1.991-2.423,2.071c-1.119,0.087-1.624-0.543-1.397-1.78c-1.195,0-2.396,0-3.626,0
		c-0.887,2.439-1.766,4.854-2.673,7.347c0.22,0,0.437,0,0.651,0c4.562,0,9.121,0.01,13.687-0.002
		c5.889-0.014,9.937,2.225,12.094,6.7c1.314,2.726,1.589,5.899,0.619,9.474c-0.539,1.977-1.307,3.977-2.027,5.967
		c-0.371,1.023-1.435,1.767-2.414,1.78c-1.024,0.016-1.568-0.689-1.225-1.746c0.483-1.487,1.073-2.979,1.548-4.466
		c0.265-0.83,0.37-1.651,0.582-2.48c0.104-0.408-0.047-0.5-0.435-0.499c-4.381,0.014-8.755,0.009-13.13,0.009
		c-3.8,0-7.6,0.002-11.395-0.002c-1.141-0.001-1.664-0.526-1.518-1.492c0.16-1.062,1.281-2.081,2.398-2.176
		c0.229-0.019,0.451-0.011,0.675-0.011c7.504,0,15.007,0,22.512,0c0.221,0,0.443,0,0.859,0c-0.306-0.815-0.512-1.557-0.841-2.218
		c-1.381-2.767-3.785-4.444-7.196-4.999c-0.795-0.13-1.65-0.149-2.504-0.149c-12.64-0.01-25.284-0.007-37.929-0.008
		c-1.16,0-1.693-0.481-1.591-1.425c0.121-1.086,1.309-2.176,2.458-2.25c0.209-0.014,0.412-0.006,0.616-0.006
		c6.351-0.001,12.699-0.001,19.049-0.001C194.587,21.298,194.809,21.298,195.084,21.298z"/>
	<path fill-rule="evenodd" clip-rule="evenodd" fill="#66B5A6" d="M172.378,43.405c1.731,0,3.458,0.016,5.197-0.008
		c0.726-0.011,1.211,0.226,1.521,0.739c0.543,0.896,1.103,1.778,1.692,2.64c0.115,0.17,0.365,0.301,0.607,0.303
		c2.859,0.021,5.727,0.023,8.602-0.002c0.276-0.003,0.666-0.16,0.939-0.353c1.218-0.857,2.418-1.746,3.613-2.639
		c0.627-0.468,1.232-0.688,1.889-0.687c3.551,0.011,7.107,0.014,10.668-0.001c0.706-0.003,1.162,0.247,1.462,0.74
		c0.53,0.866,1.099,1.705,1.622,2.575c0.166,0.275,0.397,0.39,0.785,0.387c3.205-0.015,6.409-0.015,9.608-0.004
		c1.244,0.004,1.713,0.822,1.193,2.008c-0.347,0.79-1.146,1.438-1.986,1.587c-0.31,0.056-0.616,0.074-0.913,0.074
		c-3.353,0.005-6.7-0.009-10.058,0.012c-0.88,0.006-1.484-0.257-1.852-0.908c-0.482-0.859-1.028-1.678-1.581-2.487
		c-0.107-0.159-0.344-0.278-0.57-0.279c-2.916-0.019-5.84-0.019-8.77,0.001c-0.229,0-0.551,0.123-0.773,0.282
		c-1.232,0.877-2.455,1.773-3.666,2.682c-0.65,0.488-1.285,0.703-1.952,0.702c-3.518-0.003-7.036-0.004-10.556,0.002
		c-0.692,0-1.178-0.235-1.482-0.729c-0.534-0.863-1.099-1.705-1.623-2.574c-0.166-0.276-0.398-0.389-0.785-0.387
		c-3.133,0.015-6.26,0.011-9.385,0.007c-1.109-0.002-1.65-0.419-1.648-1.238c0.001-1.154,1.254-2.401,2.496-2.426
		c1.912-0.036,3.802-0.009,5.701-0.009C172.376,43.412,172.377,43.408,172.378,43.405z"/>
	<path fill-rule="evenodd" clip-rule="evenodd" fill="#C5D25B" d="M190.389,54.449c9.068,0,18.135,0.001,27.202-0.004
		c0.669,0,1.289,0.057,1.57,0.596c0.277,0.531,0.174,1.165-0.285,1.823c-0.475,0.682-1.122,1.119-1.897,1.215
		c-0.231,0.027-0.463,0.051-0.684,0.051c-18.117,0.002-36.232,0.002-54.348,0.001c-1.341,0-1.848-0.392-1.779-1.361
		c0.073-1.037,1.161-2.131,2.283-2.281c0.309-0.041,0.607-0.038,0.905-0.038C172.367,54.448,181.379,54.449,190.389,54.449z"/>
</g>
<g>
	<path fill="#66B5A6" d="M13.564,55.632c-0.765-2.105-0.445-5.084,0.955-8.932l9.204-25.288c1.401-3.849,3.249-6.825,5.547-8.933
		c2.297-2.106,4.888-3.161,7.771-3.161s4.706,1.055,5.47,3.161c0.763,2.107,0.445,5.084-0.956,8.933L32.352,46.7
		c-1.4,3.848-3.25,6.826-5.547,8.932c-2.297,2.108-4.888,3.162-7.771,3.162S14.328,57.74,13.564,55.632z M26.304,47.181
		l9.554-26.249c1.151-3.161,0.712-4.741-1.317-4.741c-2.028,0-3.618,1.58-4.769,4.741l-9.554,26.249
		c-1.15,3.16-0.711,4.741,1.317,4.741C23.564,51.922,25.153,50.341,26.304,47.181z"/>
	<path fill="#66B5A6" d="M49.657,10.006h7.368l-4.766,28.792h0.106l10.479-28.792h5.232L50.57,58.106h-6.033l5.733-35.113h-0.107
		l-12.78,35.113H32.15L49.657,10.006z"/>
	<path fill="#66B5A6" d="M74.544,16.878h-6.14l2.501-6.872h18.152l-2.501,6.872h-6.14L65.411,58.106h-5.873L74.544,16.878z"/>
	<path fill="#66B5A6" d="M91.887,10.006h8.703c3.024,0,4.902,0.905,5.633,2.714c0.729,1.811,0.41,4.594-0.957,8.349l-1.075,2.955
		c-1.817,4.994-4.249,8.154-7.295,9.483l-0.05,0.138c1.223,0.549,1.82,1.672,1.792,3.366c-0.03,1.695-0.562,3.963-1.595,6.803
		l-3.076,8.452c-0.5,1.374-0.87,2.485-1.106,3.333c-0.237,0.848-0.364,1.683-0.379,2.508H86.5c0.069-0.778,0.193-1.512,0.373-2.199
		c0.179-0.687,0.594-1.924,1.245-3.711l3.201-8.795c0.801-2.199,1.083-3.733,0.849-4.604c-0.236-0.87-1.03-1.306-2.381-1.306h-2.029
		l-7.503,20.614H74.38L91.887,10.006z M92.393,30.62c1.175,0,2.197-0.389,3.068-1.168c0.872-0.778,1.639-2.084,2.306-3.917
		l1.351-3.711c0.633-1.74,0.852-2.999,0.655-3.778c-0.197-0.779-0.813-1.168-1.844-1.168h-2.67L90.257,30.62H92.393z"/>
	<path fill="#66B5A6" d="M117.94,10.006h7.955l-11.42,48.101h-5.873l2.409-9.551l-0.05,0.137h-6.674l-4.495,9.414h-5.445
		L117.94,10.006z M112.643,42.165l6.038-23.776h-0.106l-11.216,23.776H112.643z"/>
	<path fill="#66B5A6" d="M119.916,55.701c-0.728-2.062-0.407-4.97,0.96-8.727l9.404-25.837c1.366-3.756,3.164-6.665,5.392-8.728
		c2.227-2.061,4.746-3.092,7.559-3.092c2.811,0,4.58,1.031,5.308,3.092c0.727,2.063,0.406,4.972-0.96,8.728l-1.852,5.084h-5.553
		l2.026-5.565c1.083-2.977,0.646-4.466-1.312-4.466s-3.477,1.489-4.561,4.466l-9.779,26.867c-1.067,2.934-0.622,4.398,1.335,4.398
		s3.47-1.465,4.537-4.398l2.677-7.352h5.553l-2.477,6.803c-1.367,3.757-3.165,6.665-5.393,8.727s-4.747,3.093-7.559,3.093
		S120.642,57.763,119.916,55.701z"/>
	<path fill="#66B5A6" d="M155.151,10.006h5.873l-7.378,20.271l14.853-20.271h5.873l-13.421,17.66l-3.979,30.44h-6.14l2.839-21.439
		l-4.576,6.116l-5.577,15.323h-5.873L155.151,10.006z"/>
</g>
</svg>
